<svg width="36" height="36" viewBox="0 0 36 36" fill="none" xmlns="http://www.w3.org/2000/svg">
<path fill-rule="evenodd" clip-rule="evenodd" d="M5.73483 7.22283L6.77947 5.94911L6.80204 6.06088C7.09677 7.52077 7.24521 9.00593 7.24521 10.4947V11.9472L7.5253 11.0223C7.80223 10.1078 7.91792 9.15281 7.86726 8.19935L7.71095 5.25702L10.2725 2.71935L10.7067 2.34297C11.6428 1.5315 12.7773 0.977304 13.997 0.735632C15.0786 0.52133 16.1864 0.467663 17.2839 0.576394L17.9571 0.643086L18.7323 0.771082C19.0414 0.822116 19.2125 1.15488 19.0723 1.43254L18.6817 2.20654C18.3583 2.84721 18.19 3.55366 18.19 4.26995V4.95773C18.19 5.30972 18.2336 5.66039 18.3198 6.00187L18.4147 6.37819C18.5715 6.99952 18.9194 7.55718 19.4103 7.97398C19.9753 8.45375 20.6949 8.71746 21.439 8.71746H21.683L21.2173 9.40955L21.1494 9.51041C20.89 9.89592 20.7516 10.3489 20.7516 10.8122C20.7516 11.4048 20.9077 11.9872 21.2044 12.5017L21.3708 12.79C21.578 13.1493 21.8327 13.4797 22.1281 13.7723L22.5637 14.2038C23.0541 14.6896 23.6685 15.0343 24.3413 15.2009C24.8909 15.337 25.4642 15.3506 26.0198 15.2405L26.3404 15.177L26.7085 16.1493C26.9263 16.7248 27.266 17.2474 27.7046 17.682C28.0349 18.0092 28.4163 18.2815 28.8341 18.4885L30.532 19.3295L28.1181 21.169C27.7111 21.4792 27.2629 21.7323 26.7862 21.9212L25.176 22.5592H25.9042C26.5016 22.5592 27.095 22.4638 27.6618 22.2767C28.0209 22.1581 28.3608 21.9886 28.671 21.7736L29.9307 20.9C30.3308 20.6225 30.7057 20.3109 31.051 19.9688L31.5599 19.4646C31.6473 19.3781 31.7657 19.3295 31.8893 19.3295H32.9346C33.1901 19.3295 33.4399 19.2546 33.6524 19.1142C33.8954 18.9537 34.1808 18.8681 34.4728 18.8681H34.6843C34.8346 18.8681 34.9565 18.9888 34.9565 19.1378V19.7909V21.5879C34.9565 22.2319 34.8593 22.8722 34.6682 23.4876L34.2374 24.8744C34.0963 25.3289 33.9049 25.7667 33.6667 26.1796L32.1621 28.7881L30.4064 31.0491C30.0264 31.5386 29.5774 31.9715 29.0733 32.3347L27.9313 33.1576C27.5 33.4683 26.9908 33.6559 26.4593 33.6998L25.0588 33.8154C24.6978 33.8452 24.3786 34.0593 24.2165 34.3803C24.0876 34.6358 23.8448 34.8162 23.5611 34.8673L21.4502 35.2476L18.6557 35.4783H17.1247C16.4399 35.4783 15.7573 35.4012 15.0901 35.2487C13.746 34.9414 12.4435 34.4774 11.2098 33.8663L10.6987 33.6131C9.79482 33.1654 8.92537 32.6524 8.09744 32.0782L7.01234 31.3257L6.42781 30.8045C5.27529 29.7769 4.3277 28.5442 3.63427 27.1702C3.09582 26.1034 2.74442 24.9536 2.59508 23.77L2.35498 21.8672L2.70766 22.333C2.93691 22.6358 3.21182 22.9019 3.52274 23.1219L4.68366 23.9434L4.52975 23.5622C4.32243 23.0488 4.06184 22.558 3.75219 22.0979L2.69532 21.0508C2.01638 20.3782 1.5419 19.5301 1.326 18.6033L1.12695 17.7488C1.01563 17.2709 1.01563 16.7742 1.12695 16.2963L1.57705 14.364C1.62978 14.1377 1.70701 13.9176 1.80739 13.7076L2.40625 12.4552C3.30031 10.5853 4.41784 8.82863 5.73483 7.22283ZM12.2551 7.18745C12.0523 6.56523 12.1858 5.8574 12.6615 5.34422L12.9338 5.05055L13.0035 4.98144C13.7146 4.27702 14.6343 3.81623 15.6285 3.66637C16.3307 3.5937 16.9626 4.09086 17.0502 4.78492L17.056 4.83093C17.102 5.19612 17.0988 5.56577 17.0462 5.9301L16.9964 6.27585C16.9279 6.75072 16.7599 7.20615 16.5033 7.61292L16.2474 8.01852C15.9244 8.53055 15.3579 8.84161 14.7484 8.84164C14.4757 8.84165 14.2068 8.77916 13.9625 8.65909C13.9747 8.67858 13.9866 8.69804 13.9984 8.71747C14.2217 9.08612 15.0596 9.3354 15.6285 9.40956C15.8079 9.43295 15.9436 9.44159 16.0687 9.44954C16.3403 9.46682 16.5618 9.48091 17.0714 9.63579C16.6645 9.7164 16.0211 9.77691 15.4002 9.69598L15.3791 9.69323C14.7682 9.61367 13.8644 9.49596 13.5326 8.94817L13.5004 8.89478C13.3423 8.63269 13.1649 8.3387 12.8855 8.08283C12.843 8.04969 12.8018 8.01472 12.7622 7.97801C12.653 7.89196 12.5297 7.81187 12.3886 7.74083L12.2194 7.65549C11.5577 7.32147 10.413 6.74371 10.0396 6.6412C10.1581 6.67374 10.3553 6.71568 10.5925 6.76613C11.09 6.87197 11.7633 7.01523 12.2551 7.18745ZM17.7243 19.7625V20.0178C17.7243 20.3312 17.8499 20.6317 18.0736 20.8533C18.2972 21.0748 18.6006 21.1993 18.9169 21.1993H19.2177C19.4618 21.1993 19.7037 21.1532 19.9303 21.0633L20.0834 21.0027C20.5186 20.8302 20.8907 20.5311 21.1507 20.1448L21.3025 19.9192C21.5462 19.5571 21.6346 19.114 21.5485 18.6873C21.4844 18.3697 21.3268 18.078 21.0956 17.849L21.0127 17.7668C20.6964 17.4535 20.2674 17.2775 19.8201 17.2775C19.3728 17.2775 18.9438 17.4535 18.6275 17.7668L18.4488 17.9438C18.1282 18.2615 17.9097 18.666 17.8208 19.1064L17.7595 19.4098C17.7361 19.5259 17.7243 19.6441 17.7243 19.7625ZM13.7655 32.1463V32.2447C13.7655 32.5581 13.8912 32.8586 14.1148 33.0802C14.3385 33.3017 14.6418 33.4262 14.9581 33.4262H15.2589C15.503 33.4262 15.7449 33.3801 15.9716 33.2903L16.3648 33.1344C16.6447 33.0235 16.8885 32.8384 17.0694 32.5995C17.3389 32.2435 17.4496 31.7937 17.3758 31.3547L17.363 31.2789C17.296 30.8803 17.0722 30.5194 16.7459 30.2769C16.4763 30.0766 16.1449 29.9658 15.8079 29.9658C15.3948 29.9658 14.9986 30.1283 14.7065 30.4177L14.4935 30.6288C14.3198 30.8008 14.1753 30.9995 14.0654 31.2171L13.9167 31.5117C13.8173 31.7088 13.7655 31.926 13.7655 32.1463ZM7.08484 21.4472L7.20506 21.0884C7.23177 21.0086 7.26423 20.9309 7.30216 20.8557C7.45227 20.5583 7.68181 20.3136 7.95994 20.144C6.55118 20.3148 5.80402 20.9419 5.57976 21.2974C6.03253 20.5797 7.28273 19.232 10.329 19.7978C10.4279 19.8223 10.5651 19.8232 10.7401 19.7941C11.1114 19.7324 11.5757 19.5495 12.028 19.3276C12.4764 19.1076 12.8953 18.858 13.1706 18.6762C12.9509 19.1014 12.6669 19.529 12.2347 19.741C11.9115 19.8996 11.5643 20.0483 11.2348 20.1486C12.0114 20.8605 12.9813 21.3002 13.917 21.5584C14.9709 21.8493 15.9628 21.9045 16.5451 21.8677C16.4089 21.8763 16.243 21.8953 16.0554 21.9168C15.3717 21.9952 14.4003 22.1066 13.5326 21.8672C12.8543 21.68 12.2498 21.453 11.6735 21.0807C11.6988 21.2029 11.7097 21.3278 11.7057 21.4531L11.703 21.5395C11.6821 22.1946 11.3429 22.7993 10.7924 23.1629L10.6997 23.2241C10.4185 23.4099 10.0988 23.5308 9.76424 23.5782L9.16457 23.6631C8.82247 23.7115 8.47354 23.67 8.15269 23.5429L8.04821 23.5015C7.6802 23.3557 7.37666 23.0847 7.19199 22.7373C6.98063 22.3396 6.94193 21.8738 7.08484 21.4472ZM26.5161 26.038L26.6756 26.038C26.9781 26.038 27.2765 26.1078 27.5471 26.2418L28.2141 26.5722C28.4253 26.6768 28.6185 26.815 28.7855 26.9804C29.3192 27.5096 29.5284 28.2581 29.382 28.9582C29.8578 28.5988 30.3573 28.2863 30.9977 28.096C30.4555 28.5138 30.038 28.9367 29.6381 29.3417C28.9267 30.0622 28.2711 30.7263 27.0686 31.2045C26.8828 31.2825 26.6919 31.3493 26.4969 31.4045L26.4831 31.4084C26.3847 31.4382 26.2831 31.467 26.178 31.4947L25.8747 31.5806L25.8276 31.5923C25.7413 31.6136 25.6551 31.6277 25.5696 31.6348C25.1396 31.7205 24.6587 31.7908 24.1165 31.8434C22.0862 32.8569 20.1903 33.8684 19.0022 34.5262C19.4199 34.295 19.8862 33.953 20.4078 33.5705C21.1611 33.0182 22.0296 32.3812 23.033 31.8715C22.7799 31.8914 22.4707 31.8847 22.1633 31.8781L22.1627 31.8781C22.0098 31.8748 21.8575 31.8715 21.7128 31.8715C21.4798 31.8715 20.3588 31.9057 19.98 32.0294C20.3775 31.8996 21.0511 31.7142 21.7913 31.5762C22.5043 31.4432 23.2955 31.351 23.9658 31.402C24.156 31.3882 24.3386 31.3704 24.5141 31.3489C24.1463 31.0916 23.887 30.6822 23.8423 30.1954C23.8004 29.7387 23.8442 29.2782 23.9713 28.8372L23.9873 28.782C24.1572 28.1928 24.4436 27.643 24.8298 27.1643L25.2531 26.6397C25.5599 26.2595 26.0246 26.0381 26.5161 26.038ZM6.34113 14.0327L6.29846 14.1601C6.24513 14.3192 6.25957 14.4931 6.33845 14.6415C6.40735 14.7711 6.52063 14.8722 6.65795 14.9266L6.69694 14.9421C6.81667 14.9895 6.94688 15.005 7.07454 14.9869L7.29831 14.9553C7.42316 14.9376 7.54244 14.8924 7.64738 14.8231L7.68199 14.8003C7.88741 14.6646 8.01398 14.439 8.02177 14.1945L8.02242 14.1741C8.02522 14.0863 8.0102 13.9989 7.97827 13.917C7.8904 13.6916 7.68458 13.5323 7.44256 13.5023L7.31722 13.4868C7.20053 13.4724 7.0821 13.4814 6.96902 13.5134L6.85345 13.5461C6.6487 13.6041 6.47789 13.7445 6.38266 13.9332C6.36644 13.9653 6.35256 13.9986 6.34113 14.0327ZM18.422 11.0772C18.3945 11.454 17.8156 12.3602 17.2414 12.6873C16.6263 13.0378 15.4649 13.0039 13.5326 12.6393C15.6285 13.3314 16.7187 13.5174 17.4736 13.0873C18.2405 12.6504 18.4229 12.1779 18.4229 11.4858L18.422 11.0772ZM18.422 11.0772C18.4234 11.0582 18.4234 11.0406 18.4219 11.0244L18.422 11.0772ZM18.9132 26.3208C19.2108 26.1299 19.465 25.8793 19.6831 25.6025C17.7461 26.998 16.1186 26.179 15.5603 25.6259C15.7595 26.0392 16.0036 26.4471 16.381 26.7117C16.8997 27.0754 17.5792 27.1766 18.9132 26.3208ZM5.54319 26.9684C5.51852 27.3276 5.50207 27.5671 5.53447 27.8253C5.54211 27.8861 5.54994 27.9486 5.55927 28.0133C5.58998 28.2262 5.63844 28.4572 5.76489 28.6994C5.89162 28.9421 6.08938 29.1825 6.40115 29.4296C6.94096 29.8574 7.57822 30.0122 8.15218 30.1516L8.1527 30.1517L8.15321 30.1518C8.25025 30.1754 8.34547 30.1985 8.43811 30.2225C8.58208 30.2597 8.72543 30.2898 8.86921 30.3201C9.38039 30.4276 9.89712 30.5363 10.4663 30.9671C9.95117 30.2016 9.16907 29.9647 8.48591 29.7881C8.38139 29.7611 8.27834 29.7358 8.17687 29.7109C7.60067 29.5695 7.14519 29.4284 6.69209 29.0693C6.42169 28.855 6.27015 28.6629 6.17857 28.4874C6.08671 28.3115 6.04784 28.1388 6.02033 27.948C6.01267 27.8949 6.00602 27.8399 5.99915 27.7831C5.95706 27.4351 5.84799 27.1732 5.56858 26.5734C5.56018 26.721 5.55124 26.8512 5.54319 26.9684ZM12.7467 25.493C12.6617 25.427 12.5765 25.3608 12.4909 25.2957C12.0876 24.9894 11.6148 24.7468 11.204 24.8451C11.6417 24.7404 12.0488 24.7203 12.4213 24.8227C13.0347 24.9912 13.3835 25.5929 13.6785 26.1517C13.3487 25.9607 13.0476 25.7268 12.7467 25.493ZM16.0097 16.0737C15.6551 15.9319 15.3003 15.7902 14.9298 15.6975C15.37 16.153 15.8738 16.635 16.5103 16.6281C16.8969 16.6238 17.2823 16.4925 17.6734 16.2714C17.3064 16.4789 16.7841 16.376 16.3108 16.1928C16.2104 16.1539 16.1103 16.1139 16.0103 16.0739L16.0097 16.0737ZM12.1354 11.0244C11.9875 11.3176 11.7532 11.5293 11.5198 11.7402C11.2734 11.9629 11.0279 12.1847 10.8857 12.5008C10.8368 12.6095 10.7802 12.7459 10.7128 12.9172C10.7128 12.6822 10.6753 12.4568 10.6401 12.2453C10.628 12.1727 10.6161 12.1016 10.6062 12.0325C10.4989 11.2852 11.3736 11.0244 12.1354 11.0244ZM11.4978 32.9802C11.2046 32.9453 10.9421 32.9141 10.7382 32.6628C11.3864 32.2661 12.2275 32.1005 12.3742 32.8412C12.4135 33.0399 12.4698 33.2569 12.6012 33.4675C12.2418 33.1994 12.0379 33.0833 11.902 33.048C11.7629 33.0118 11.6274 32.9957 11.4978 32.9802ZM19.4944 2.58062L19.495 2.57845C19.5267 2.46904 19.5577 2.36204 19.5872 2.25798C19.1884 5.25703 20.9068 7.4102 21.9159 7.79469C18.1729 7.14033 18.9404 4.49227 19.4944 2.58062ZM22.3816 8.71748C21.7606 9.56337 21.2178 11.1982 22.3816 12.6393C23.298 13.7741 23.989 14.0158 26.6719 13.8036C26.7249 13.8031 26.7699 13.7993 26.8061 13.7928C26.7608 13.7965 26.7161 13.8002 26.6719 13.8036C26.0987 13.8099 24.592 13.445 23.3131 12.1779C21.8623 10.7407 22.1097 9.40957 22.3816 8.71748ZM33.5592 18.176C30.9977 18.4067 26.8061 18.176 27.5047 14.0235C27.605 14.1892 27.7006 14.3835 27.8052 14.5962C28.4285 15.8633 29.3716 17.7809 33.5592 18.176Z" fill="#B55119"/>
</svg>
